<?xml version="1.0" encoding="UTF-8" standalone="no"?>
<!-- Created with Inkscape (http://www.inkscape.org/) -->
<svg
   xmlns:dc="http://purl.org/dc/elements/1.1/"
   xmlns:cc="http://web.resource.org/cc/"
   xmlns:rdf="http://www.w3.org/1999/02/22-rdf-syntax-ns#"
   xmlns:svg="http://www.w3.org/2000/svg"
   xmlns="http://www.w3.org/2000/svg"
   xmlns:sodipodi="http://sodipodi.sourceforge.net/DTD/sodipodi-0.dtd"
   xmlns:inkscape="http://www.inkscape.org/namespaces/inkscape"
   width="312.88843"
   height="285.61639"
   id="svg2"
   sodipodi:version="0.32"
   inkscape:version="0.45.1"
   version="1.0"
   sodipodi:docbase="/home/dkg/src/gnutls/gnutls/doc"
   sodipodi:docname="gnutls-logo.svg"
   inkscape:output_extension="org.inkscape.output.svg.inkscape">
  <defs
     id="defs4" />
  <sodipodi:namedview
     inkscape:document-units="in"
     pagecolor="#ffffff"
     bordercolor="#666666"
     borderopacity="1.0"
     inkscape:pageopacity="0.0"
     inkscape:pageshadow="2"
     inkscape:zoom="0.55656566"
     inkscape:cx="382.5"
     inkscape:cy="226.23043"
     inkscape:current-layer="layer1"
     id="namedview6"
     inkscape:window-width="1024"
     inkscape:window-height="767"
     inkscape:window-x="0"
     inkscape:window-y="0" />
  <metadata
     id="metadata8">
    <rdf:RDF>
      <cc:Work
         rdf:about="">
        <dc:format>image/svg+xml</dc:format>
        <dc:type
           rdf:resource="http://purl.org/dc/dcmitype/StillImage" />
      </cc:Work>
    </rdf:RDF>
  </metadata>
  <g
     inkscape:label="Layer 1"
     inkscape:groupmode="layer"
     id="layer1"
     transform="translate(-62.944441,-55.704099)">
    <path
       style="fill:#000000"
       d="M 111.93797,340.45884 C 100.35987,336.66037 93.008461,326.60929 92.966401,314.52036 C 92.923801,302.275 100.60924,292.23087 112.71421,288.71186 C 129.50663,283.83017 146.23489,296.9254 146.13136,314.87149 C 146.07433,324.75756 140.36367,333.97245 131.44444,338.57077 C 127.09978,340.81067 116.22018,341.86373 111.93797,340.45884 z M 179.44444,338.97513 C 162.47463,331.03788 157.92247,310.72833 170.03019,296.97323 C 182.69659,282.58345 205.11346,285.52725 214.25149,302.7804 C 217.32006,308.57406 217.27874,320.16822 214.16855,326.04879 C 207.17514,339.27154 192.08678,344.88831 179.44444,338.97513 z M 314.94444,339.30851 C 301.00197,332.8381 294.5644,316.26174 300.88064,303.09506 C 308.76209,286.66559 331.55003,282.63822 343.97301,295.47924 C 360.62391,312.69046 349.83382,339.99235 325.94444,341.09645 C 320.99034,341.32542 318.3742,340.90019 314.94444,339.30851 z M 62.944441,276.33331 L 274.98304,276.33331 L 274.44444,182.31002 L 352.39896,182.83331 L 375.83288,246.83331 L 375.44444,311.83331 L 366.81271,312.12052 L 358.18098,312.40773 L 357.48208,308.68228 C 355.68752,299.11641 348.33276,289.57262 339.16955,284.91928 C 330.81751,280.67789 319.46923,280.93801 310.14687,285.58453 C 301.92461,289.68273 293.15527,301.95653 293.00031,309.58331 L 292.94444,312.33331 L 258.06315,312.33331 L 223.18187,312.33331 L 221.99723,307.58331 C 216.70718,286.37196 194.56718,275.89005 175.3385,285.49332 C 167.27827,289.51879 157.99066,306.10853 157.95421,312.33331 C 152.72824,312.29155 154.94524,312.39896 151.52955,312.33331 C 150.61696,306.6263 146.38343,294.96263 141.62637,290.66492 C 131.35799,281.38806 117.55287,279.29773 105.55678,285.20339 C 101.59469,287.15392 97.477741,290.19267 95.030431,292.97296 C 91.122301,297.41283 86.944441,308.36443 86.944441,312.33331 L 62.944441,312.33331 L 62.944441,276.33331 z M 345.46824,194.33331 L 292.94444,194.33331 L 292.94444,246.33331 L 362.77328,246.33331 L 345.46824,194.33331 z M 80.337451,147.9151 L 92.888971,146.33331 L 92.883231,134.08331 C 92.876151,118.97289 94.987771,109.93947 101.45331,97.421 C 118.93928,63.56494 158.003,47.60884 193.68855,59.74628 C 215.07057,67.01877 231.64435,82.42522 240.35852,103.12917 C 244.51909,113.01425 245.91356,120.74968 245.92966,134.03341 L 245.94444,146.2335 L 257.44444,146.83331 L 257.9603,265.33331 L 80.944441,265.33331 C 79.930297,226.24089 82.4951,186.98062 80.337451,147.9151 z M 176.78029,209.03932 L 179.34303,206.93632 C 185.60218,201.8 186.25148,192.03048 180.75013,185.76479 C 175.1306,179.36449 166.47456,178.79911 159.69259,184.38937 C 152.91498,189.97605 152.58998,199.52656 158.95097,206.18273 L 161.96138,209.33284 L 150.89139,231.40578 L 187.8804,231.17231 L 176.78029,209.03932 z M 227.88377,137.08331 C 227.71,119.65907 223.22128,105.9577 214.13607,95.11991 C 197.60761,75.40301 170.01057,68.87006 146.44444,79.09551 C 123.57515,89.0186 111.01349,109.54759 110.9618,137.08331 L 110.94444,146.33331 L 227.97601,146.33331 L 227.88377,137.08331 z "
       id="path2222"
       sodipodi:nodetypes="cssssccsssccsssccccccccccsscccccsccssscccccccccccsssccccccccssccccccsscccc" />
  </g>
</svg>
